<svg id="ee31d65f-82bf-4204-859c-349e51e06593" data-name="Layer 1" xmlns="http://www.w3.org/2000/svg" viewBox="0 0 29.51 23.78"><defs><style>.f8c5acaf-0a33-45ca-827f-eb46a5864c3a{fill:#007534;}.af3a49c4-645c-411d-baac-7b10a6f924a9{fill:#54b948;}.ae7973f7-cf22-4f9d-92c4-4a28d0511a07{fill:#269241;}.abfe93b2-6db3-47a2-a6c9-51d690fb87f7,.e9e45ec6-361a-4d3d-a25b-fad337449fda{fill:none;stroke:#231f20;stroke-width:0.25px;}.e9e45ec6-361a-4d3d-a25b-fad337449fda{stroke-miterlimit:10;}.abfe93b2-6db3-47a2-a6c9-51d690fb87f7{stroke-linecap:round;stroke-linejoin:round;}</style></defs><polygon class="f8c5acaf-0a33-45ca-827f-eb46a5864c3a" points="22.01 7.54 10.86 23.65 0.15 4 2.94 0.13 11.4 16.22 14.06 12.7 17.97 7.54 22.01 7.54"/><polygon class="af3a49c4-645c-411d-baac-7b10a6f924a9" points="11.17 7.54 14.06 12.7 11.4 16.22 2.94 0.13 27.04 0.13 29.36 3.9 9.14 3.85 11.17 7.54"/><polygon class="ae7973f7-cf22-4f9d-92c4-4a28d0511a07" points="10.86 23.65 22.01 7.54 17.97 7.54 11.38 7.54 11.17 7.54 9.14 3.85 29.36 3.9 15.26 23.65 10.86 23.65"/><polygon class="e9e45ec6-361a-4d3d-a25b-fad337449fda" points="2.94 0.13 27.04 0.13 29.36 3.9 15.26 23.65 10.86 23.65 0.15 4 2.94 0.13"/><polyline class="e9e45ec6-361a-4d3d-a25b-fad337449fda" points="17.97 7.54 14.06 12.7 11.4 16.22 2.94 0.13"/><polyline class="e9e45ec6-361a-4d3d-a25b-fad337449fda" points="14.06 12.7 11.17 7.54 11.38 7.54"/><line class="e9e45ec6-361a-4d3d-a25b-fad337449fda" x1="9.14" y1="3.85" x2="11.17" y2="7.54"/><polyline class="e9e45ec6-361a-4d3d-a25b-fad337449fda" points="11.38 7.54 17.97 7.54 22.01 7.54 10.86 23.65"/><line class="abfe93b2-6db3-47a2-a6c9-51d690fb87f7" x1="29.36" y1="3.91" x2="9.14" y2="3.85"/></svg>